<?xml version="1.0" encoding="UTF-8"?>
<!DOCTYPE svg PUBLIC "-//W3C//DTD SVG 1.1//EN" "http://www.w3.org/Graphics/SVG/1.1/DTD/svg11.dtd">
<svg xmlns="http://www.w3.org/2000/svg" version="1.1" width="365px" height="108px" style="shape-rendering:geometricPrecision; text-rendering:geometricPrecision; image-rendering:optimizeQuality; fill-rule:evenodd; clip-rule:evenodd" xmlns:xlink="http://www.w3.org/1999/xlink">
<g><path style="opacity:0.959" fill="#ea6752" d="M 92.5,-0.5 C 93.8333,-0.5 95.1667,-0.5 96.5,-0.5C 107.494,10.6613 118.328,21.9946 129,33.5C 129.494,35.1341 129.66,36.8008 129.5,38.5C 122.468,38.1697 115.468,38.503 108.5,39.5C 104.604,55.813 100.771,72.1463 97,88.5C 93.3108,90.4394 90.9774,89.4394 90,85.5C 86.8126,70.0848 83.3126,54.7514 79.5,39.5C 72.8665,38.5033 66.1998,38.17 59.5,38.5C 59.3398,36.8008 59.5065,35.1341 60,33.5C 70.6725,21.9946 81.5058,10.6613 92.5,-0.5 Z"/></g>
<g><path style="opacity:0.687" fill="#ea6752" d="M 297.5,34.5 C 299.167,34.5 300.833,34.5 302.5,34.5C 302.5,52.5 302.5,70.5 302.5,88.5C 300.833,88.5 299.167,88.5 297.5,88.5C 297.5,70.5 297.5,52.5 297.5,34.5 Z"/></g>
<g><path style="opacity:0.901" fill="#fefffe" d="M 21.5,37.5 C 35.3867,36.2398 44.22,42.2398 48,55.5C 50.2578,66.1135 48.0911,75.6135 41.5,84C 32.2469,90.4654 22.5802,91.132 12.5,86C 2.882,76.1512 0.381999,64.6512 5,51.5C 8.28253,44.1235 13.7825,39.4568 21.5,37.5 Z M 23.5,46.5 C 34.2466,46.9163 39.5799,52.583 39.5,63.5C 38.9208,76.9398 32.2542,82.1064 19.5,79C 12.0927,71.2261 10.5927,62.3928 15,52.5C 17.3218,49.6047 20.1552,47.6047 23.5,46.5 Z"/></g>
<g><path style="opacity:0.822" fill="#ea6752" d="M 180.5,37.5 C 188.507,37.3336 196.507,37.5003 204.5,38C 213.099,40.7527 216.266,46.5861 214,55.5C 212.833,59.3333 210.333,61.8333 206.5,63C 210,63.8333 212.167,66 213,69.5C 213.293,75.8666 213.793,82.1999 214.5,88.5C 212.833,88.5 211.167,88.5 209.5,88.5C 209.757,82.1021 209.257,75.7688 208,69.5C 207.167,68.6667 206.333,67.8333 205.5,67C 198.95,65.5796 192.284,65.0796 185.5,65.5C 185.5,73.1667 185.5,80.8333 185.5,88.5C 183.833,88.5 182.167,88.5 180.5,88.5C 180.5,71.5 180.5,54.5 180.5,37.5 Z M 185.5,41.5 C 191.909,41.1827 198.243,41.6827 204.5,43C 209.155,45.8966 210.655,50.0633 209,55.5C 207.833,56.6667 206.667,57.8333 205.5,59C 198.924,60.3774 192.257,60.8774 185.5,60.5C 185.5,54.1667 185.5,47.8333 185.5,41.5 Z"/></g>
<g><path style="opacity:0.804" fill="#ea6752" d="M 315.5,40.5 C 316.833,40.5 318.167,40.5 319.5,40.5C 319.5,44.1667 319.5,47.8333 319.5,51.5C 322.167,51.5 324.833,51.5 327.5,51.5C 327.5,53.1667 327.5,54.8333 327.5,56.5C 324.833,56.5 322.167,56.5 319.5,56.5C 319.334,65.1731 319.5,73.8397 320,82.5C 322.106,84.291 324.606,84.9577 327.5,84.5C 327.838,87.8259 326.338,89.4925 323,89.5C 319.821,89.4573 317.488,88.124 316,85.5C 315.5,75.8391 315.334,66.1724 315.5,56.5C 313.167,56.5 310.833,56.5 308.5,56.5C 308.5,54.8333 308.5,53.1667 308.5,51.5C 310.833,51.5 313.167,51.5 315.5,51.5C 315.5,47.8333 315.5,44.1667 315.5,40.5 Z"/></g>
<g><path style="opacity:0.911" fill="#fefffe" d="M 66.5,50.5 C 68.8333,50.5 71.1667,50.5 73.5,50.5C 73.5,53.5 73.5,56.5 73.5,59.5C 69.3782,59.4763 66.2115,61.143 64,64.5C 62.5989,72.4148 62.0989,80.4148 62.5,88.5C 59.5,88.5 56.5,88.5 53.5,88.5C 53.5,76.1667 53.5,63.8333 53.5,51.5C 56.909,51.2493 60.2423,51.5827 63.5,52.5C 64.7387,52.0576 65.7387,51.3909 66.5,50.5 Z"/></g>
<g><path style="opacity:0.886" fill="#fefffe" d="M 166.5,65.5 C 175.712,69.6555 177.879,76.3222 173,85.5C 166.659,89.7453 159.826,90.5786 152.5,88C 147.916,84.6661 145.583,80.1661 145.5,74.5C 148.572,74.1826 151.572,74.5159 154.5,75.5C 156.7,80.4234 160.367,81.7567 165.5,79.5C 166.859,77.694 166.525,76.194 164.5,75C 160.5,73.6667 156.5,72.3333 152.5,71C 147.78,67.7015 146.28,63.2015 148,57.5C 152.126,51.0298 157.959,48.8631 165.5,51C 172.133,53.3985 175.466,58.2319 175.5,65.5C 172.5,65.5 169.5,65.5 166.5,65.5 Z M 166.5,65.5 C 162.601,65.369 159.268,64.0357 156.5,61.5C 161.617,58.0327 164.95,59.366 166.5,65.5 Z"/></g>
<g><path style="opacity:0.9" fill="#fefffe" d="M 113.5,51.5 C 116.5,51.5 119.5,51.5 122.5,51.5C 122.334,60.5062 122.5,69.5062 123,78.5C 129.067,82.2063 132.734,80.5396 134,73.5C 134.5,66.1742 134.666,58.8409 134.5,51.5C 137.5,51.5 140.5,51.5 143.5,51.5C 143.5,63.8333 143.5,76.1667 143.5,88.5C 136.163,89.0011 128.83,89.1678 121.5,89C 117.667,87.8333 115.167,85.3333 114,81.5C 113.5,71.5056 113.334,61.5056 113.5,51.5 Z"/></g>
<g><path style="opacity:0.791" fill="#ea6752" d="M 232.5,51.5 C 247.258,49.9235 254.258,56.5902 253.5,71.5C 244.475,71.1685 235.475,71.5018 226.5,72.5C 228.654,83.9065 234.987,87.4065 245.5,83C 246.607,79.1948 248.94,78.0282 252.5,79.5C 248.89,87.8817 242.557,91.0483 233.5,89C 227.559,86.9856 224.059,82.8189 223,76.5C 220.575,65.7596 223.742,57.4262 232.5,51.5 Z M 233.5,55.5 C 243.303,53.6446 248.303,57.6446 248.5,67.5C 241.5,67.5 234.5,67.5 227.5,67.5C 227.42,62.3787 229.42,58.3787 233.5,55.5 Z"/></g>
<g><path style="opacity:0.801" fill="#ea6752" d="M 267.5,51.5 C 271.846,51.3343 276.179,51.501 280.5,52C 283,53.1667 284.833,55 286,57.5C 286.191,67.5469 286.691,77.5469 287.5,87.5C 285.955,88.4519 284.288,88.7852 282.5,88.5C 282.657,87.1266 282.49,85.7932 282,84.5C 280.387,86.7768 278.22,88.2768 275.5,89C 260.86,90.3689 256.026,84.2023 261,70.5C 262.419,69.5399 263.919,68.7065 265.5,68C 271.072,66.6493 276.738,66.1493 282.5,66.5C 282.619,56.7972 277.953,53.2972 268.5,56C 266.787,57.3782 265.453,59.0448 264.5,61C 263.207,61.49 261.873,61.6567 260.5,61.5C 260.893,56.6865 263.226,53.3532 267.5,51.5 Z M 269.5,70.5 C 273.833,70.5 278.167,70.5 282.5,70.5C 282.927,82.2584 277.594,86.7584 266.5,84C 261.833,78.1376 262.833,73.6376 269.5,70.5 Z"/></g>
<g><path style="opacity:0.772" fill="#ea6752" d="M 331.5,52.5 C 333.035,51.2121 334.701,51.2121 336.5,52.5C 340.333,62.8333 344.167,73.1667 348,83.5C 351.801,72.9057 355.301,62.239 358.5,51.5C 360.288,51.2148 361.955,51.5481 363.5,52.5C 358.432,66.8715 353.265,81.2048 348,95.5C 345.168,102.5 340.001,105.167 332.5,103.5C 332.5,102.167 332.5,100.833 332.5,99.5C 339.478,100.029 343.812,96.8623 345.5,90C 340.903,77.3626 336.236,64.8626 331.5,52.5 Z"/></g>
</svg>
